#!OML:ASF H:\Terrain\Patient Classification 1\Terrain2\Thursday\justin.ASF
:FULLY-SPECIFIED
:DEGREES
1353
root 5.16742 20.664 -10.3465 -109.603 85.2585 -105.383
lowerback 12.499 0.566482 2.11879
upperback 5.10826 1.33036 2.86683
thorax -1.67893 0.770779 1.60216
lowerneck -10.6995 -3.89794 -11.2338
upperneck 39.2572 -3.25017 6.6195
head 16.1602 -1.5123 4.58524
rclavicle -1.39149e-015 3.57812e-015
rhumerus -34.3525 4.42053 -83.2973
rradius 43.1942
rwrist -16.438
rhand -22.5924 13.8955
rfingers 7.12502
rthumb 3.83673 -16.0497
lclavicle -1.39149e-015 3.57812e-015
lhumerus -40.4681 -5.60264 85.08
lradius 58.8884
lwrist 6.97279
lhand -25.8506 16.125
lfingers 7.12502
lthumb 0.690013 46.1036
rfemur -19.305 -12.7064 25.8168
rtibia 41.1384
rfoot -6.89631 3.39437
rtoes 1.61416
lfemur -24.7494 -2.31527 -13.2895
ltibia 41.8184
lfoot -3.12261 -11.5468
ltoes -17.4455
1354
root 5.26822 20.5152 -10.3421 -106.854 85.552 -102.06
lowerback 12.894 0.675263 1.74988
upperback 5.02024 1.44534 2.8595
thorax -1.99465 0.821774 1.77976
lowerneck -10.7156 -3.85763 -11.1048
upperneck 39.3525 -3.08997 6.28736
head 16.1845 -1.46765 4.44409
rclavicle -1.27719e-014 -2.10712e-014
rhumerus -34.5612 5.23738 -83.461
rradius 43.6329
rwrist -15.9425
rhand -22.0885 14.5878
rfingers 7.12502
rthumb 4.32327 -15.3481
lclavicle -1.27719e-014 -2.10712e-014
lhumerus -40.7649 -5.74861 85.1771
lradius 58.8501
lwrist 6.57783
lhand -25.3181 15.9767
lfingers 7.12502
lthumb 1.20437 45.953
rfemur -19.0535 -12.2293 25.5792
rtibia 42.9727
rfoot -9.11769 3.12268
rtoes 0.756506
lfemur -24.2729 -1.68562 -13.4833
ltibia 42.0727
lfoot -1.99233 -12.0223
ltoes -15.1131
1355
root 5.36812 20.3713 -10.3339 -101.93 85.9529 -96.5317
lowerback 13.2427 0.809227 1.34308
upperback 4.98723 1.57753 2.73734
thorax -2.2271 0.882985 1.85656
lowerneck -10.7907 -3.78917 -10.9002
upperneck 39.4777 -2.9203 6.00401
head 16.2366 -1.40265 4.31492
rclavicle 1.7344e-014 3.29983e-014
rhumerus -34.6163 5.89741 -83.7896
rradius 44.0509
rwrist -15.443
rhand -21.6781 15.195
rfingers 7.12502
rthumb 4.71962 -14.7325
lclavicle 1.7344e-014 3.29983e-014
lhumerus -41.1139 -6.04449 85.2074
lradius 58.9511
lwrist 6.34462
lhand -24.7967 16.0072
lfingers 7.12502
lthumb 1.70788 45.9801
rfemur -18.9497 -11.7745 25.251
rtibia 44.8533
rfoot -11.3952 1.53588
rtoes -0.0821023
lfemur -23.7167 -0.983205 -13.7652
ltibia 42.5267
lfoot -1.57863 -12.8024
ltoes -7.9914
1356
root 5.46334 20.233 -10.3299 -96.1548 86.1312 -90.071
lowerback 13.6331 0.794542 1.07958
upperback 5.00471 1.53972 2.75872
thorax -2.42541 0.863374 2.02765
lowerneck -10.8893 -3.61477 -11.1445
upperneck 39.6015 -2.57168 5.99844
head 16.291 -1.29618 4.42156
rclavicle -1.18277e-014 -2.78299e-015
rhumerus -34.5306 7.08905 -84.155
rradius 44.4838
rwrist -15.231
rhand -21.445 15.2086
rfingers 7.12502
rthumb 4.94466 -14.7137
lclavicle -1.18277e-014 -2.78299e-015
lhumerus -41.5245 -5.86606 85.3293
lradius 59.0636
lwrist 6.1284
lhand -24.6367 16.0285
lfingers 7.12502
lthumb 1.86247 46.0001
rfemur -18.7928 -11.6954 25.133
rtibia 46.6
rfoot -13.2658 0.248016
rtoes -0.20072
lfemur -23.0664 -0.0149486 -13.9384
ltibia 43.3695
lfoot -2.77486 -14.3976
ltoes -3.26004
1357
root 5.5521 20.1025 -10.3345 -92.3856 86.0537 -85.6612
lowerback 14.044 0.727638 1.10535
upperback 5.02337 1.47477 2.82715
thorax -2.62623 0.833423 2.08949
lowerneck -11.0919 -3.49064 -11.1054
upperneck 39.74 -2.29737 5.80516
head 16.3776 -1.20393 4.38137
rclavicle 2.17669e-014 2.5842e-014
rhumerus -34.3964 8.02968 -84.3951
rradius 44.9444
rwrist -14.7881
rhand -21.1792 14.9859
rfingers 7.12502
rthumb 5.20135 -14.9302
lclavicle 2.17669e-014 2.5842e-014
lhumerus -41.766 -5.64979 85.4178
lradius 58.9673
lwrist 5.47955
lhand -24.6474 15.5946
lfingers 7.12502
lthumb 1.85215 45.5663
rfemur -18.5737 -11.9211 25.2528
rtibia 48.1467
rfoot -15.0825 -0.836566
rtoes -1.63569
lfemur -22.4969 0.909413 -13.9774
ltibia 44.6996
lfoot -4.58581 -16.0654
ltoes -1.66778
1358
root 5.63656 19.9735 -10.3461 -88.8016 85.6205 -81.5089
lowerback 14.4547 0.652526 1.51
upperback 5.0534 1.45976 2.9905
thorax -2.80958 0.831458 2.02956
lowerneck -11.4885 -3.42391 -10.8949
upperneck 39.9642 -2.05121 5.39943
head 16.5591 -1.12817 4.21578
rclavicle -4.57205e-015 -3.97569e-016
rhumerus -34.0925 8.45858 -84.3805
rradius 45.2124
rwrist -13.9273
rhand -20.9404 15.2349
rfingers 7.12502
rthumb 5.43186 -14.6755
lclavicle -4.57205e-015 -3.97569e-016
lhumerus -41.8303 -5.62055 85.5395
lradius 58.8184
lwrist 4.97168
lhand -25.0284 15.4361
lfingers 7.12502
lthumb 1.48411 45.4107
rfemur -18.2699 -12.3414 25.7287
rtibia 49.4347
rfoot -16.9734 -1.46941
rtoes -2.61959
lfemur -22.1419 1.58378 -13.6308
ltibia 46.4089
lfoot -5.92417 -17.134
ltoes 2.16478
1359
root 5.72001 19.8478 -10.3659 -83.5135 84.6604 -75.7384
lowerback 14.8358 0.710166 2.53808
upperback 5.04336 1.71524 3.18146
thorax -3.00784 0.965495 1.601
lowerneck -11.7137 -3.41896 -10.5082
upperneck 40.1106 -1.99528 5.06308
head 16.6752 -1.09215 4.01255
rclavicle -1.88845e-015 -4.37326e-015
rhumerus -33.7489 8.49382 -84.3315
rradius 45.2766
rwrist -13.1086
rhand -20.8364 15.6782
rfingers 7.12502
rthumb 5.53227 -14.2296
lclavicle -1.88845e-015 -4.37326e-015
lhumerus -41.652 -5.75867 85.6347
lradius 58.5597
lwrist 4.7863
lhand -25.2086 15.4039
lfingers 7.12502
lthumb 1.31006 45.3796
rfemur -17.9478 -12.5961 26.693
rtibia 50.4634
rfoot -18.7771 -1.73816
rtoes -2.43502
lfemur -22.0592 2.25135 -12.7261
ltibia 48.2107
lfoot -7.48153 -17.3039
ltoes 6.52474
1360
root 5.80214 19.7464 -10.3913 -78.0297 83.8574 -70.2586
lowerback 14.783 0.932198 3.55269
upperback 4.88706 2.14816 3.14793
thorax -3.10989 1.17852 0.920024
lowerneck -11.8007 -3.50859 -9.8738
upperneck 40.1756 -2.22741 4.85266
head 16.7366 -1.11784 3.76768
rclavicle 2.72832e-014 3.97569e-014
rhumerus -33.4488 8.315 -84.3607
rradius 45.3551
rwrist -12.6278
rhand -20.2826 16.08
rfingers 7.12502
rthumb 6.06698 -13.8131
lclavicle 2.72832e-014 3.97569e-014
lhumerus -41.2603 -5.99525 85.5994
lradius 57.8706
lwrist 4.27683
lhand -25.0345 15.0504
lfingers 7.12502
lthumb 1.47821 45.0251
rfemur -18.0554 -12.2552 27.4431
rtibia 51.2691
rfoot -20.3493 -1.97157
rtoes -0.863221
lfemur -22.5241 2.8795 -12.1729
ltibia 49.7774
lfoot -9.76346 -16.21
ltoes 6.74861
1361
root 5.8805 19.6676 -10.406 -72.7561 84.0283 -65.5443
lowerback 14.152 1.15344 3.37112
upperback 4.64402 2.35445 2.95347
thorax -3.02321 1.26925 0.795814
lowerneck -12.0163 -3.53255 -9.41945
upperneck 40.2588 -2.27495 4.58203
head 16.8247 -1.10527 3.5594
rclavicle -5.51627e-015 -1.19271e-014
rhumerus -32.9773 8.14211 -84.2828
rradius 45.2386
rwrist -12.0202
rhand -19.2416 16.9328
rfingers 7.12502
rthumb 7.07197 -12.929
lclavicle -5.51627e-015 -1.19271e-014
lhumerus -40.8717 -5.91192 85.5809
lradius 56.9237
lwrist 3.30083
lhand -24.8817 14.9246
lfingers 7.12502
lthumb 1.62587 44.8981
rfemur -18.7199 -11.3873 27.2547
rtibia 51.914
rfoot -21.8645 -2.53673
rtoes 2.16747
lfemur -23.4573 3.40721 -12.8266
ltibia 50.9421
lfoot -11.5404 -14.8454
ltoes 5.93295
